<svg xmlns="http://www.w3.org/2000/svg" viewBox="0 0 500 500"><g id="freepik--background-complete--inject-11"><rect x="228.7" y="39.23" width="1" height="62.82" transform="translate(-6.61 26.88) rotate(-6.62)" style="fill:#ebebeb"></rect><polygon points="250 254.34 234.54 121.04 235.53 120.93 250 245.66 260.33 156.6 261.32 156.71 250 254.34" style="fill:#ebebeb"></polygon><rect x="218.75" y="88.52" width="99.84" height="1" transform="translate(149.3 345.66) rotate(-83.39)" style="fill:#ebebeb"></rect><rect x="137.64" y="75.04" width="1" height="48.87" transform="translate(-32.07 102.03) rotate(-36.62)" style="fill:#ebebeb"></rect><polygon points="252.17 253.76 159.1 128.51 159.9 127.91 247.83 246.24 217.93 177.09 218.85 176.7 252.17 253.76" style="fill:#ebebeb"></polygon><rect x="189.18" y="50.51" width="1" height="119.99" transform="translate(-28.28 84.36) rotate(-23.38)" style="fill:#ebebeb"></rect><rect x="79.69" y="149.6" width="1" height="53.94" transform="translate(-113.71 180.09) rotate(-66.62)" style="fill:#ebebeb"></rect><polygon points="253.76 252.17 115.89 192.56 116.29 191.64 246.24 247.83 161.54 184.89 162.14 184.09 253.76 252.17" style="fill:#ebebeb"></polygon><rect x="114.75" y="105.77" width="1" height="88.19" transform="translate(-73.78 152.99) rotate(-53.38)" style="fill:#ebebeb"></rect><rect x="39.14" y="268.85" width="87.97" height="1" transform="translate(-30.46 11.36) rotate(-6.61)" style="fill:#ebebeb"></rect><polygon points="141.39 263.1 141.27 262.11 245.66 250 177.4 242.08 177.51 241.09 254.34 250 141.39 263.1" style="fill:#ebebeb"></polygon><rect x="98.97" y="172.11" width="1" height="120.86" transform="translate(-142.99 304.55) rotate(-83.38)" style="fill:#ebebeb"></rect><rect x="75.32" y="362.21" width="46.02" height="1" transform="matrix(0.8, -0.6, 0.6, 0.8, -196.96, 130.27)" style="fill:#ebebeb"></rect><polygon points="131.48 338.7 130.88 337.89 246.24 252.17 180.91 280.42 180.51 279.5 253.76 247.83 131.48 338.7" style="fill:#ebebeb"></polygon><rect x="50.55" y="310.01" width="119.01" height="1" transform="translate(-114.1 69.09) rotate(-23.36)" style="fill:#ebebeb"></rect><rect x="150.68" y="420.96" width="50.35" height="1" transform="translate(-280.78 415.79) rotate(-66.64)" style="fill:#ebebeb"></rect><polygon points="193.98 380.81 193.06 380.41 247.83 253.76 187.88 334.43 187.08 333.83 252.17 246.24 193.98 380.81" style="fill:#ebebeb"></polygon><rect x="105.68" y="384.06" width="88.66" height="1" transform="translate(-248.2 275.85) rotate(-53.42)" style="fill:#ebebeb"></rect><rect x="266.6" y="333.83" width="1" height="127.16" transform="translate(-44.01 33.42) rotate(-6.62)" style="fill:#ebebeb"></rect><polygon points="238.05 357.34 237.06 357.23 250 245.66 258.68 320.48 257.69 320.6 250 254.34 238.05 357.34" style="fill:#ebebeb"></polygon><rect x="187.03" y="416.78" width="87.15" height="1" transform="translate(-210.48 598.25) rotate(-83.38)" style="fill:#ebebeb"></rect><rect x="347.41" y="333.93" width="1" height="95.65" transform="translate(-159.04 282.85) rotate(-36.62)" style="fill:#ebebeb"></rect><polygon points="311.76 394.08 247.83 246.24 310.44 330.5 309.64 331.1 252.17 253.76 312.67 393.68 311.76 394.08" style="fill:#ebebeb"></polygon><rect x="326.33" y="409.27" width="1" height="36.8" transform="translate(-142.89 164.84) rotate(-23.38)" style="fill:#ebebeb"></rect><rect x="404.23" y="273.51" width="1" height="86.79" transform="translate(-46.78 562.62) rotate(-66.62)" style="fill:#ebebeb"></rect><polygon points="349 324.19 246.24 247.83 348.03 291.85 347.64 292.76 253.76 252.17 349.6 323.39 349 324.19" style="fill:#ebebeb"></polygon><rect x="390.64" y="318.74" width="1" height="72.27" transform="translate(-127 457.16) rotate(-53.38)" style="fill:#ebebeb"></rect><rect x="423.99" y="227.19" width="36.7" height="1" transform="translate(-23.29 52.5) rotate(-6.62)" style="fill:#ebebeb"></rect><polygon points="332.29 260.05 245.66 250 407.72 231.21 407.83 232.2 254.34 250 332.4 259.05 332.29 260.05" style="fill:#ebebeb"></polygon><rect x="403.5" y="210.92" width="1" height="113.89" transform="translate(91.38 638.31) rotate(-83.38)" style="fill:#ebebeb"></rect><rect x="400.08" y="129.71" width="22.25" height="1" transform="translate(3.4 270.7) rotate(-36.58)" style="fill:#ebebeb"></rect><polygon points="246.24 252.17 391.19 144.46 391.79 145.26 253.76 247.83 376.4 194.8 376.8 195.72 246.24 252.17" style="fill:#ebebeb"></polygon><rect x="388.42" y="176.99" width="58.54" height="1" transform="translate(-36.14 180.17) rotate(-23.36)" style="fill:#ebebeb"></rect><rect x="302.39" y="75.8" width="45.45" height="1" transform="translate(126.16 344.51) rotate(-66.64)" style="fill:#ebebeb"></rect><polygon points="247.83 253.76 308.39 113.7 309.31 114.1 252.17 246.24 310.33 167.97 311.14 168.57 247.83 253.76" style="fill:#ebebeb"></polygon><rect x="299.89" y="117.84" width="95.89" height="1" transform="translate(45.36 326.91) rotate(-53.38)" style="fill:#ebebeb"></rect><path d="M122.38,346.62c-15.24-20-20.84-43.81-23.86-68.32A227.16,227.16,0,0,1,96.89,235c0-.33.52-.27.5.06-.68,12.91.34,25.77,2,38.57,1.6,12.38,3.48,24.85,6.92,36.86,6.8,23.72,21.56,43,39.85,59.19,10.3,9.1,21.38,17.21,32.43,25.34a.28.28,0,0,1-.33.45C158.13,381.27,137.46,366.38,122.38,346.62Z" style="fill:#c7c7c7"></path><path d="M102.17,237.78s5.92,13.73,5.23,14.58-18.91,2.78-19.38,2,1.3-15.27,1.3-15.27Z" style="fill:#dbdbdb"></path><path d="M84.16,125.21c30.9-3.28,58.57,18.82,60.83,56.71s-31.42,57.76-47,59.4C86.8,242.51,41.21,238,36.18,190.54,31.88,150,53.37,128.47,84.16,125.21Z" style="fill:#455a64"></path><path d="M84.16,125.21c30.9-3.28,58.57,18.82,60.83,56.71s-31.42,57.76-47,59.4C86.8,242.51,41.21,238,36.18,190.54,31.88,150,53.37,128.47,84.16,125.21Z" style="fill:#dbdbdb"></path><circle cx="75.5" cy="169.8" r="34.4" transform="translate(-101.59 226.11) rotate(-83.67)" style="fill:#fff;opacity:0.2"></circle><path d="M55.3,180.36a20.57,20.57,0,1,0-4.1-28.8A20.57,20.57,0,0,0,55.3,180.36Z" style="fill:#fff;opacity:0.4"></path><path d="M377.62,392c15.24-20,20.84-43.81,23.86-68.32a227.16,227.16,0,0,0,1.63-43.3c0-.33-.52-.27-.5.06.68,12.91-.34,25.77-2,38.57-1.6,12.38-3.48,24.85-6.92,36.86-6.8,23.72-21.56,43-39.85,59.19-10.3,9.1-21.38,17.21-32.43,25.34a.28.28,0,0,0,.33.45C341.87,426.66,362.54,411.77,377.62,392Z" style="fill:#c7c7c7"></path><path d="M397.83,283.17s-5.92,13.73-5.23,14.58,18.91,2.78,19.38,2.05-1.3-15.27-1.3-15.27Z" style="fill:#dbdbdb"></path><path d="M415.84,170.6c-30.9-3.28-58.57,18.82-60.83,56.71s31.42,57.76,47,59.4c11.22,1.19,56.81-3.29,61.84-50.78C468.12,195.35,446.63,173.86,415.84,170.6Z" style="fill:#455a64"></path><path d="M415.84,170.6c-30.9-3.28-58.57,18.82-60.83,56.71s31.42,57.76,47,59.4c11.22,1.19,56.81-3.29,61.84-50.78C468.12,195.35,446.63,173.86,415.84,170.6Z" style="fill:#dbdbdb"></path><circle cx="424.5" cy="215.19" r="34.4" transform="matrix(0.65, -0.76, 0.76, 0.65, -14.38, 399.28)" style="fill:#fff;opacity:0.2"></circle><path d="M444.7,225.75a20.57,20.57,0,1,1,4.1-28.8A20.57,20.57,0,0,1,444.7,225.75Z" style="fill:#fff;opacity:0.4"></path><path d="M167.4,294.15A148.76,148.76,0,0,1,149.79,255c-4-14.47-4.77-29.36-4.4-44.3.47-18.92,1.74-37.85,2.58-56.76,0-.3.48-.24.47.05-.57,16.33-1.13,32.67-1.55,49-.39,15.2-.39,30.52,2.91,45.44C156.35,278,173.74,303.93,194,326c12.58,13.7,26.44,26.19,40.28,38.6.15.13,0,.38-.18.25C209.38,343.9,184.69,321.81,167.4,294.15Z" style="fill:#c7c7c7"></path><path d="M156.2,146.56s4.56,14.23,3.8,15-19.1,1-19.49.18,2.76-15.08,2.76-15.08Z" style="fill:#ebebeb"></path><path d="M149.11,32.77c31.07-.28,56.48,24.38,55.09,62.31s-36.85,54.46-52.48,54.6c-11.28.11-56.23-8.75-56.66-56.5C94.69,52.37,118.15,33.05,149.11,32.77Z" style="fill:#ebebeb"></path><circle cx="138.25" cy="71.56" r="34.4" transform="translate(-5.03 132.42) rotate(-50.38)" style="fill:#fff;opacity:0.2"></circle><circle cx="133.38" cy="63.04" r="20.57" transform="translate(-4.14 9.64) rotate(-4.08)" style="fill:#fff;opacity:0.4"></circle></g><g id="freepik--Cake--inject-11"><rect x="123.19" y="206.13" width="253.62" height="93.37" style="fill:#EB4949"></rect><rect x="123.19" y="206.13" width="253.62" height="93.37" style="opacity:0.5"></rect><rect x="123.19" y="252.26" width="253.62" height="47.25" transform="translate(500 551.76) rotate(180)" style="fill:#EB4949"></rect><rect x="123.19" y="252.26" width="253.62" height="47.25" transform="translate(500 551.76) rotate(180)" style="opacity:0.4"></rect><g style="opacity:0.2"><path d="M363.05,254.8c-4,0-4,6.22,0,6.22S367.05,254.8,363.05,254.8Z"></path><path d="M269.06,237.79a8.17,8.17,0,0,0-.48-.93,1.4,1.4,0,0,0-2.41,0,10.28,10.28,0,0,0-.49.93C263.92,241.47,270.83,241.47,269.06,237.79Z"></path><path d="M175.36,226.89c-3.05,0-3.06,4.75,0,4.75S178.43,226.89,175.36,226.89Z"></path><path d="M304.85,280.24c-3.05,0-3.06,4.75,0,4.75S307.92,280.24,304.85,280.24Z"></path><path d="M354.42,269.81c-3.06,0-3.07,4.75,0,4.75S357.48,269.81,354.42,269.81Z"></path><path d="M136.24,269.81c-3.05,0-3.06,4.75,0,4.75S139.31,269.81,136.24,269.81Z"></path><path d="M220.52,281.51c-3.05,0-3.06,4.75,0,4.75S223.59,281.51,220.52,281.51Z"></path><path d="M155.83,262.19a3.3,3.3,0,0,0-4.64,0,4.58,4.58,0,0,0-1.13,4.49c.63,3.42,6.28,3.42,6.91,0A4.61,4.61,0,0,0,155.83,262.19Z"></path><path d="M302,241.14a3.3,3.3,0,0,0-4.64,0,4.58,4.58,0,0,0-1.13,4.49c.63,3.42,6.28,3.42,6.9,0A4.59,4.59,0,0,0,302,241.14Z"></path></g><path d="M376.81,206.13C359,261.25,361.38,295.2,123.19,295.2v4.31H376.81Z" style="opacity:0.1"></path><path d="M375.26,184.27a9.14,9.14,0,0,1,8.67,6.14,11.86,11.86,0,0,1,.67,3.81v88.26a6.72,6.72,0,1,1-13.43,0v-26a5.13,5.13,0,0,0-5.13-5.13h0a5.13,5.13,0,0,0-5.13,5.13v6.88a6.72,6.72,0,0,1-13.44,0V239.47a5.59,5.59,0,0,0-5.59-5.59h-6a5.34,5.34,0,0,0-5.34,5.34V275a6.72,6.72,0,0,1-13.44,0V240.86a7,7,0,0,0-7-7H233c-4.08,0-7.38,2-7.38,6.07v1.24a6.72,6.72,0,1,1-13.43,0v-2.6a4.71,4.71,0,0,0-4.71-4.71h-.35a4.71,4.71,0,0,0-4.71,4.71v36.28a6.72,6.72,0,0,1-13.43,0V260.05a7.9,7.9,0,0,0-7.9-7.9h.66a7.9,7.9,0,0,0-7.9,7.9v1.87a6.72,6.72,0,0,1-13.44,0V238.38a4.5,4.5,0,0,0-4.5-4.5H134.37a5.54,5.54,0,0,0-5.54,5.53v14.65a6.72,6.72,0,1,1-13.43,0V194.22c0-5.5,4.45-9.95,15.64-9.95Z" style="fill:#EB4949"></path><path d="M225.39,259.46a6.65,6.65,0,1,1-6.65-6.64A6.65,6.65,0,0,1,225.39,259.46Z" style="fill:#EB4949"></path><path d="M120,211.25a2,2,0,0,1-2-2V194.77a8,8,0,0,1,8-8h51.06a2,2,0,0,1,0,4H126a4,4,0,0,0-4,4v14.48A2,2,0,0,1,120,211.25Z" style="fill:#fff"></path><path d="M194.18,190.8H186.9a2,2,0,0,1,0-4h7.28a2,2,0,0,1,0,4Z" style="fill:#fff"></path><path d="M120.17,255.07a2,2,0,0,1-2-2v-8.69a2,2,0,0,1,4,0v8.69A2,2,0,0,1,120.17,255.07Z" style="fill:#fff"></path><path d="M193.12,276.15a2,2,0,0,1-2-2v-8.69a2,2,0,0,1,4,0v8.69A2,2,0,0,1,193.12,276.15Z" style="fill:#fff"></path><path d="M164.68,263.51a2,2,0,0,1-2-2V242.22a2,2,0,1,1,4,0v19.29A2,2,0,0,1,164.68,263.51Z" style="fill:#fff"></path><path d="M321,276.88a2,2,0,0,1-2-2V255.6a2,2,0,0,1,4,0v19.28A2,2,0,0,1,321,276.88Z" style="fill:#fff"></path><path d="M216.07,243.38a2,2,0,0,1-2-2V237.2a2,2,0,0,1,4,0v4.18A2,2,0,0,1,216.07,243.38Z" style="fill:#fff"></path><path d="M216.07,262a2,2,0,0,1-2-2v-1.05a2,2,0,0,1,4,0V260A2,2,0,0,1,216.07,262Z" style="fill:#fff"></path><rect x="88.19" y="334.48" width="323.62" height="139.5" style="fill:#EB4949"></rect><rect x="88.19" y="334.48" width="323.62" height="139.5" style="opacity:0.5"></rect><rect x="88.19" y="380.6" width="323.62" height="47.25" style="fill:#EB4949"></rect><rect x="88.19" y="380.6" width="323.62" height="47.25" style="opacity:0.4"></rect><g style="opacity:0.2"><path d="M142.89,448.58c4,0,4-6.22,0-6.22S138.88,448.58,142.89,448.58Z"></path><path d="M263.81,454.85a10.28,10.28,0,0,0,.49.93,1.4,1.4,0,0,0,2.41,0,8.17,8.17,0,0,0,.48-.93C269,451.16,262.05,451.16,263.81,454.85Z"></path><path d="M125.51,454c3.06,0,3.06-4.75,0-4.75S122.45,454,125.51,454Z"></path><path d="M355.53,443.29c3.06,0,3.06-4.75,0-4.75S352.47,443.29,355.53,443.29Z"></path><path d="M161.9,394.27c3.06,0,3.06-4.76,0-4.76S158.84,394.27,161.9,394.27Z"></path><path d="M238.7,368.49c3.06,0,3.07-4.75,0-4.75S235.64,368.49,238.7,368.49Z"></path><path d="M105.35,406.18c3.06,0,3.06-4.75,0-4.75S102.29,406.18,105.35,406.18Z"></path><path d="M394.65,415.08c3.06,0,3.06-4.75,0-4.75S391.59,415.08,394.65,415.08Z"></path><path d="M328,376.73c3,0,3.06-4.75,0-4.75S324.91,376.73,328,376.73Z"></path><path d="M375.06,408a3.31,3.31,0,0,0,4.65,0,4.6,4.6,0,0,0,1.13-4.49c-.63-3.42-6.28-3.42-6.91,0A4.59,4.59,0,0,0,375.06,408Z"></path><path d="M210.29,360.73a3.31,3.31,0,0,0,4.64,0,4.58,4.58,0,0,0,1.13-4.49c-.63-3.42-6.28-3.42-6.91,0A4.62,4.62,0,0,0,210.29,360.73Z"></path></g><path d="M411.81,334.48c-22.7,70.33-19.69,134-323.62,134V474H411.81Z" style="opacity:0.1"></path><path d="M89.74,299.51a9.14,9.14,0,0,0-8.67,6.14,11.8,11.8,0,0,0-.67,3.8v88.27a6.72,6.72,0,1,0,13.43,0v-26A5.13,5.13,0,0,1,99,366.57h0a5.13,5.13,0,0,1,5.13,5.12v6.89a6.72,6.72,0,0,0,13.44,0V354.7a5.58,5.58,0,0,1,5.59-5.58H244.41a5.34,5.34,0,0,1,5.34,5.33v35.74a6.72,6.72,0,0,0,13.44,0V356.1a7,7,0,0,1,7-7H275c4.07,0,7.37,2,7.37,6.07v1.24a6.72,6.72,0,1,0,13.43,0v-2.61a4.7,4.7,0,0,1,4.71-4.7h.35a4.7,4.7,0,0,1,4.71,4.7V390.1a6.72,6.72,0,0,0,13.43,0V375.28a7.9,7.9,0,0,1,7.9-7.89h-.66a7.9,7.9,0,0,1,7.9,7.89v1.87a6.72,6.72,0,0,0,13.44,0V353.62a4.49,4.49,0,0,1,4.5-4.5h48.57a5.53,5.53,0,0,1,5.54,5.53V369.3a6.72,6.72,0,1,0,13.43,0V309.45c0-5.49-4.45-9.94-15.64-9.94Z" style="fill:#EB4949"></path><path d="M84.88,331a2,2,0,0,1-2-2V309.57a7.05,7.05,0,0,1,7-7.05H200.71a2,2,0,1,1,0,4H89.92a3,3,0,0,0-3,3.05V329A2,2,0,0,1,84.88,331Z" style="fill:#fff"></path><path d="M229,306.52H212.1a2,2,0,0,1,0-4H229a2,2,0,1,1,0,4Z" style="fill:#fff"></path><path d="M253.48,392a2,2,0,0,1-2-2v-8.7a2,2,0,0,1,4,0V390A2,2,0,0,1,253.48,392Z" style="fill:#fff"></path><path d="M310.17,391.51a2,2,0,0,1-2-2V370.23a2,2,0,0,1,4,0v19.28A2,2,0,0,1,310.17,391.51Z" style="fill:#fff"></path><path d="M84.88,398.75a2,2,0,0,1-2-2V377.47a2,2,0,0,1,4,0v19.28A2,2,0,0,1,84.88,398.75Z" style="fill:#fff"></path><path d="M286.23,359.31a2,2,0,0,1-2-2v-4.18a2,2,0,0,1,4,0v4.18A2,2,0,0,1,286.23,359.31Z" style="fill:#fff"></path><path d="M253.48,412.17a2,2,0,0,1-2-2v-.73a2,2,0,0,1,4,0v.73A2,2,0,0,1,253.48,412.17Z" style="fill:#fff"></path><path d="M107.82,380.54a2,2,0,0,1-2-2v-4.19a2,2,0,0,1,4,0v4.19A2,2,0,0,1,107.82,380.54Z" style="fill:#fff"></path><path d="M263.09,409.18a6.65,6.65,0,1,1-6.65-6.64A6.65,6.65,0,0,1,263.09,409.18Z" style="fill:#EB4949"></path><rect x="88.6" y="404.6" width="3" height="65.79" transform="translate(-188.79 88.58) rotate(-27)" style="fill:#263238"></rect><polygon points="68.83 396.31 77.88 401.81 88.18 399.32 85.74 409.63 91.3 418.64 80.74 419.51 73.88 427.58 69.79 417.81 59.99 413.78 68.03 406.87 68.83 396.31" style="fill:#EB4949"></polygon><path d="M70.33,399.35a62.06,62.06,0,0,1-.14,8.52A60.94,60.94,0,0,1,63.41,413a61.54,61.54,0,0,1,6-5.79l-.17.34a60.64,60.64,0,0,1,1.12-8.24Z" style="fill:#fff"></path><path d="M66.61,414.76a31.46,31.46,0,0,1,5,1.39c.53,1.23,1,2.46,1.47,3.73,2.6,7.67-1.27-.38-2.27-3.16l.27.27a32.79,32.79,0,0,1-4.48-2.23Z" style="fill:#fff"></path><polygon points="73.88 427.58 78.65 416.63 85.64 415.23 81.81 409.85 83.79 402.39 77.88 401.81 88.18 399.32 85.74 409.63 91.3 418.64 80.74 419.51 73.88 427.58" style="opacity:0.1"></polygon><rect x="377.61" y="439" width="62.55" height="3" transform="translate(-182.78 546.11) rotate(-57.25)" style="fill:#263238"></rect><polygon points="433.47 403.55 432.92 414.13 440.01 422 429.77 424.75 424.47 433.92 418.7 425.04 408.34 422.83 415 414.6 413.9 404.06 423.79 407.85 433.47 403.55" style="fill:#EB4949"></polygon><path d="M431.51,406.32a62.33,62.33,0,0,1-7.57,3.91,62.23,62.23,0,0,1-7.77-3.51,59.86,59.86,0,0,1,7.93,2.5h-.38a60.67,60.67,0,0,1,7.79-2.91Z" style="fill:#fff"></path><path d="M416.18,410.35a32,32,0,0,1,1.15,5.07c-.83,1.05-1.67,2.08-2.58,3.06-3.09,3.29-3.32,3.13-.67-.55.75-1,1.55-2,2.37-2.95l-.1.37a30.85,30.85,0,0,1-.17-5Z" style="fill:#fff"></path><polygon points="408.34 422.83 420.25 421.83 424.79 427.32 427.71 421.4 435.22 419.6 432.92 414.13 440.01 422 429.77 424.75 424.47 433.92 418.7 425.04 408.34 422.83" style="opacity:0.1"></polygon><rect x="84.14" y="439.14" width="52.42" height="3" transform="translate(-335.78 526.14) rotate(-86.79)" style="fill:#263238"></rect><polygon points="113.24 401.43 117.97 410.91 128.01 414.28 120.46 421.7 120.36 432.3 110.97 427.41 100.86 430.59 102.61 420.14 96.46 411.51 106.93 409.94 113.24 401.43" style="fill:#EB4949"></polygon><path d="M112.89,404.81a61.5,61.5,0,0,1-4.66,7.13,61.58,61.58,0,0,1-8.49.77,61.73,61.73,0,0,1,8.14-1.73l-.33.2a62.11,62.11,0,0,1,5.34-6.37Z" style="fill:#fff"></path><path d="M101.54,415.86a33.42,33.42,0,0,1,3.5,3.85c-.21,1.32-.44,2.64-.74,3.94a28.24,28.24,0,0,1-1.09,3.65,37.29,37.29,0,0,1,.85-7.53l.09.37a31,31,0,0,1-2.61-4.28Z" style="fill:#fff"></path><polygon points="100.86 430.59 110.73 423.86 117.39 426.39 117.01 419.8 122.66 414.54 117.97 410.91 128.01 414.28 120.46 421.7 120.36 432.3 110.97 427.41 100.86 430.59" style="opacity:0.1"></polygon><rect x="351.48" y="422.11" width="86.72" height="3" transform="translate(-62.06 779.4) rotate(-84.92)" style="fill:#263238"></rect><polygon points="400.94 368.48 405.21 378.17 415.08 382.02 407.17 389.07 406.56 399.65 397.41 394.31 387.17 397 389.41 386.65 383.69 377.73 394.23 376.67 400.94 368.48" style="fill:#EB4949"></polygon><path d="M400.43,371.83a60.93,60.93,0,0,1-5,6.9,62,62,0,0,1-8.52.36,59.23,59.23,0,0,1,8.21-1.33l-.33.18a60.21,60.21,0,0,1,5.64-6.11Z" style="fill:#fff"></path><path d="M388.55,382.32a32.5,32.5,0,0,1,3.32,4c-.27,1.31-.57,2.61-.94,3.89-2.26,7.78-.82-1-.05-3.89l.07.38a31.09,31.09,0,0,1-2.4-4.4Z" style="fill:#fff"></path><polygon points="387.17 397 397.36 390.75 403.88 393.61 403.82 387.01 409.72 382.02 405.21 378.17 415.08 382.02 407.17 389.07 406.56 399.65 397.41 394.31 387.17 397" style="opacity:0.1"></polygon><rect x="374.03" y="404.6" width="3" height="65.79" transform="translate(-157.68 218.16) rotate(-27)" style="fill:#263238"></rect><polygon points="354.27 396.31 363.32 401.81 373.61 399.32 371.17 409.63 376.73 418.64 366.17 419.51 359.31 427.58 355.23 417.81 345.43 413.78 353.46 406.87 354.27 396.31" style="fill:#EB4949"></polygon><path d="M355.77,399.35a60.52,60.52,0,0,1-.15,8.52,60.83,60.83,0,0,1-6.77,5.17,61.44,61.44,0,0,1,6-5.79l-.17.34a62.28,62.28,0,0,1,1.13-8.24Z" style="fill:#fff"></path><path d="M352,414.76a31.29,31.29,0,0,1,5,1.39c.53,1.23,1,2.46,1.47,3.73,2.59,7.67-1.28-.38-2.27-3.16l.27.27a32.9,32.9,0,0,1-4.49-2.23Z" style="fill:#fff"></path><polygon points="359.31 427.58 364.09 416.63 371.07 415.23 367.24 409.85 369.23 402.39 363.32 401.81 373.61 399.32 371.17 409.63 376.73 418.64 366.17 419.51 359.31 427.58" style="opacity:0.1"></polygon><path d="M97.2,474H63a17.08,17.08,0,0,1,34.16,0Z" style="fill:#EB4949"></path><path d="M168.88,474H141.39a13.75,13.75,0,0,1,27.49,0Z" style="fill:#EB4949"></path><path d="M146.77,474H89.72a28.53,28.53,0,0,1,57.05,0Z" style="fill:#EB4949"></path><path d="M111,453.7a4.14,4.14,0,1,1-4.14-4.14A4.14,4.14,0,0,1,111,453.7Z" style="fill:#fff"></path><circle cx="75.17" cy="461.2" r="2.55" style="fill:#fff"></circle><circle cx="150.12" cy="465.81" r="2.55" style="fill:#fff"></circle><path d="M115.15,449.4a1.81,1.81,0,1,1-1.81-1.81A1.81,1.81,0,0,1,115.15,449.4Z" style="fill:#fff"></path><path d="M157.1,463.07a1.81,1.81,0,1,1-1.81-1.81A1.81,1.81,0,0,1,157.1,463.07Z" style="fill:#fff"></path><path d="M387.39,474H353.23a17.08,17.08,0,0,1,34.16,0Z" style="fill:#EB4949"></path><path d="M437,474h-57a28.52,28.52,0,0,1,57,0Z" style="fill:#EB4949"></path><path d="M401.15,453.7a4.14,4.14,0,1,1-4.13-4.14A4.13,4.13,0,0,1,401.15,453.7Z" style="fill:#fff"></path><circle cx="365.37" cy="461.2" r="2.55" style="fill:#fff"></circle><path d="M405.34,449.4a1.81,1.81,0,1,1-1.81-1.81A1.81,1.81,0,0,1,405.34,449.4Z" style="fill:#fff"></path><circle cx="162.76" cy="87.78" r="24.35" transform="translate(49.86 234.24) rotate(-80.71)" style="fill:#EB4949;opacity:0.1"></circle><polygon points="157.85 184.27 156.15 115.96 169.36 115.96 167.36 184.27 157.85 184.27" style="fill:#37474f"></polygon><polygon points="169.36 115.96 169.13 123.68 156.54 131.65 156.31 122.54 166.7 115.96 169.36 115.96" style="fill:#455a64"></polygon><polygon points="168.88 132.46 168.6 141.89 156.98 149.26 156.75 140.14 168.88 132.46" style="fill:#455a64"></polygon><polygon points="168.34 150.68 168.07 160.11 157.42 166.86 157.19 157.74 168.34 150.68" style="fill:#455a64"></polygon><polygon points="167.81 168.89 167.53 178.33 158.16 184.27 157.85 184.27 157.63 175.34 167.81 168.89" style="fill:#455a64"></polygon><path d="M162.76,112.13c-18.23-11.46,0-33.2,0-33.2S181,100.67,162.76,112.13Z" style="fill:#EB4949"></path><path d="M162.76,112.13c-11.81-7.43,0-21.51,0-21.51S174.56,104.7,162.76,112.13Z" style="opacity:0.1"></path><circle cx="201.38" cy="87.78" r="24.35" transform="translate(82.25 272.35) rotate(-80.71)" style="fill:#EB4949;opacity:0.1"></circle><polygon points="196.47 184.27 194.77 115.96 207.98 115.96 205.98 184.27 196.47 184.27" style="fill:#37474f"></polygon><polygon points="207.98 115.96 207.75 123.68 195.16 131.65 194.93 122.54 205.32 115.96 207.98 115.96" style="fill:#455a64"></polygon><polygon points="207.5 132.46 207.22 141.89 195.6 149.26 195.37 140.14 207.5 132.46" style="fill:#455a64"></polygon><polygon points="206.96 150.68 206.69 160.11 196.04 166.86 195.81 157.74 206.96 150.68" style="fill:#455a64"></polygon><polygon points="206.43 168.89 206.15 178.33 196.78 184.27 196.47 184.27 196.25 175.34 206.43 168.89" style="fill:#455a64"></polygon><path d="M201.38,112.13c-18.23-11.46,0-33.2,0-33.2S219.6,100.67,201.38,112.13Z" style="fill:#EB4949"></path><path d="M201.38,112.13c-11.81-7.43,0-21.51,0-21.51S213.18,104.7,201.38,112.13Z" style="opacity:0.1"></path><circle cx="298.59" cy="87.78" r="24.35" transform="translate(163.77 368.29) rotate(-80.71)" style="fill:#EB4949;opacity:0.1"></circle><polygon points="293.68 184.27 291.98 115.96 305.19 115.96 303.19 184.27 293.68 184.27" style="fill:#37474f"></polygon><polygon points="305.19 115.96 304.96 123.68 292.37 131.65 292.14 122.54 302.53 115.96 305.19 115.96" style="fill:#455a64"></polygon><polygon points="304.71 132.46 304.43 141.89 292.81 149.26 292.58 140.14 304.71 132.46" style="fill:#455a64"></polygon><polygon points="304.17 150.68 303.9 160.11 293.25 166.86 293.02 157.74 304.17 150.68" style="fill:#455a64"></polygon><polygon points="303.64 168.89 303.36 178.33 293.99 184.27 293.68 184.27 293.46 175.34 303.64 168.89" style="fill:#455a64"></polygon><path d="M298.59,112.13c-18.23-11.46,0-33.2,0-33.2S316.81,100.67,298.59,112.13Z" style="fill:#EB4949"></path><path d="M298.59,112.13c-11.81-7.43,0-21.51,0-21.51S310.39,104.7,298.59,112.13Z" style="opacity:0.1"></path><circle cx="337.21" cy="87.78" r="24.35" transform="translate(165.38 390.91) rotate(-75.04)" style="fill:#EB4949;opacity:0.1"></circle><polygon points="332.3 184.27 330.6 115.96 343.81 115.96 341.81 184.27 332.3 184.27" style="fill:#37474f"></polygon><polygon points="343.81 115.96 343.58 123.68 330.99 131.65 330.76 122.54 341.15 115.96 343.81 115.96" style="fill:#455a64"></polygon><polygon points="343.33 132.46 343.05 141.89 331.43 149.26 331.2 140.14 343.33 132.46" style="fill:#455a64"></polygon><polygon points="342.79 150.68 342.52 160.11 331.87 166.86 331.64 157.74 342.79 150.68" style="fill:#455a64"></polygon><polygon points="342.26 168.89 341.98 178.33 332.61 184.27 332.3 184.27 332.08 175.34 342.26 168.89" style="fill:#455a64"></polygon><path d="M337.21,112.13c-18.23-11.46,0-33.2,0-33.2S355.43,100.67,337.21,112.13Z" style="fill:#EB4949"></path><path d="M337.21,112.13c-11.81-7.43,0-21.51,0-21.51S349,104.7,337.21,112.13Z" style="opacity:0.1"></path><circle cx="340.87" cy="246.68" r="36.67" transform="translate(-79.72 258.55) rotate(-37.51)" style="fill:#EB4949"></circle><circle cx="340.87" cy="246.68" r="36.67" transform="translate(-79.72 258.55) rotate(-37.51)" style="fill:#fff;opacity:0.7000000000000001"></circle><ellipse cx="328.8" cy="230.32" rx="19.65" ry="13.94" transform="translate(-65.69 304.73) rotate(-45.69)" style="fill:#fff;opacity:0.2"></ellipse><g style="opacity:0.30000000000000004"><path d="M328.64,232.13c6.69-.54,13.6-12.89,8.79-16.55-3.94-3-9.77-.86-12.63,1.49s-5.25,6.89-3.6,10.41C322.6,230.45,326.19,232.33,328.64,232.13Z" style="fill:#fff"></path><path d="M318.73,235.6c2.19-.35,3-4.52,1.43-6.21s-4.81-.44-5.28,1.25S316.76,235.91,318.73,235.6Z" style="fill:#fff"></path></g><path d="M342.21,281.58a36.53,36.53,0,0,1-3.7,17.91h-.06V306a5,5,0,0,1-4.16,5,4.9,4.9,0,0,1-5.65-4.85v-2.11a4.56,4.56,0,0,0-4.56-4.56h-6.8a4.56,4.56,0,0,0-4.56,4.56V309a5,5,0,0,1-4.13,5,4.92,4.92,0,0,1-5.69-4.85v-3.05a4.9,4.9,0,0,0-4.91-4.91h0a4.91,4.91,0,0,0-4.91,4.91v21.26a5,5,0,0,1-4.08,5,4.92,4.92,0,0,1-5.74-4.84V304.05a4.56,4.56,0,0,0-4.56-4.56h-6.06a36.68,36.68,0,1,1,69.57-17.91Z" style="fill:#EB4949"></path><rect x="263.81" y="287.31" width="83.53" height="12.22" rx="5.9" style="fill:#EB4949"></rect><g style="opacity:0.30000000000000004"><path d="M342.21,281.58a36.53,36.53,0,0,1-3.7,17.91h-.06V306a5,5,0,0,1-4.16,5,4.9,4.9,0,0,1-5.65-4.85v-2.11a4.56,4.56,0,0,0-4.56-4.56h-6.8a4.56,4.56,0,0,0-4.56,4.56V309a5,5,0,0,1-4.13,5,4.92,4.92,0,0,1-5.69-4.85v-3.05a4.9,4.9,0,0,0-4.91-4.91h0a4.91,4.91,0,0,0-4.91,4.91v21.26a5,5,0,0,1-4.08,5,4.92,4.92,0,0,1-5.74-4.84V304.05a4.56,4.56,0,0,0-4.56-4.56h-6.06a36.68,36.68,0,1,1,69.57-17.91Z" style="fill:#fff"></path><rect x="263.81" y="287.31" width="83.53" height="12.22" rx="5.9" style="fill:#fff"></rect></g><ellipse cx="293.87" cy="265.99" rx="19.65" ry="13.94" transform="translate(-101.74 290.48) rotate(-45.69)" style="fill:#fff;opacity:0.2"></ellipse><g style="opacity:0.30000000000000004"><path d="M293.71,267.81c6.69-.55,13.6-12.9,8.79-16.56-3.94-3-9.77-.86-12.63,1.49s-5.25,6.89-3.6,10.41A8.52,8.52,0,0,0,293.71,267.81Z" style="fill:#fff"></path><path d="M283.8,271.27c2.19-.35,3-4.52,1.43-6.21s-4.81-.44-5.28,1.25S281.83,271.59,283.8,271.27Z" style="fill:#fff"></path><path d="M271.89,290.61c-.65-2.11-4.89-2.33-6.34-.53s.24,4.82,2,5S272.49,292.52,271.89,290.61Z" style="fill:#fff"></path><path d="M304.71,307.19c-1.65,1-1,4.62.85,5.48s4-1.2,3.86-2.71S306.2,306.3,304.71,307.19Z" style="fill:#fff"></path><path d="M285.54,324c-1.89,1.13-1.1,5.26,1,6.24s4.59-1.36,4.4-3.08S287.24,323,285.54,324Z" style="fill:#fff"></path></g><path d="M334.78,283.36a36.5,36.5,0,0,0,3.74,16.13h9a2.59,2.59,0,0,1,2.6,2.6v16.57a4.91,4.91,0,0,0,4.91,4.91h0a4.91,4.91,0,0,0,4.91-4.91V302.09a2.59,2.59,0,0,1,2.59-2.6h0a2.59,2.59,0,0,1,2.59,2.6v1.44a4.9,4.9,0,0,0,4.91,4.9h0a4.9,4.9,0,0,0,4.91-4.9v-1.44a2.59,2.59,0,0,1,2.6-2.6h5.95a2.59,2.59,0,0,1,2.59,2.6V311a4.91,4.91,0,0,0,4.91,4.91h0a4.91,4.91,0,0,0,4.91-4.91v-8.92a2.59,2.59,0,0,1,2.59-2.6h5.89a36.68,36.68,0,1,0-69.61-16.13Z" style="fill:#EB4949"></path><rect x="329.69" y="287.31" width="83.53" height="12.22" rx="5.9" style="fill:#EB4949"></rect><g style="opacity:0.5"><path d="M334.78,283.36a36.5,36.5,0,0,0,3.74,16.13h9a2.59,2.59,0,0,1,2.6,2.6v16.57a4.91,4.91,0,0,0,4.91,4.91h0a4.91,4.91,0,0,0,4.91-4.91V302.09a2.59,2.59,0,0,1,2.59-2.6h0a2.59,2.59,0,0,1,2.59,2.6v1.44a4.9,4.9,0,0,0,4.91,4.9h0a4.9,4.9,0,0,0,4.91-4.9v-1.44a2.59,2.59,0,0,1,2.6-2.6h5.95a2.59,2.59,0,0,1,2.59,2.6V311a4.91,4.91,0,0,0,4.91,4.91h0a4.91,4.91,0,0,0,4.91-4.91v-8.92a2.59,2.59,0,0,1,2.59-2.6h5.89a36.68,36.68,0,1,0-69.61-16.13Z" style="fill:#fff"></path><rect x="329.69" y="287.31" width="83.53" height="12.22" rx="5.9" style="fill:#fff"></rect></g><ellipse cx="358.26" cy="265.99" rx="19.65" ry="13.94" transform="translate(-82.33 336.56) rotate(-45.69)" style="fill:#fff;opacity:0.2"></ellipse><g style="opacity:0.30000000000000004"><path d="M358.1,267.81c6.69-.55,13.6-12.9,8.79-16.56-3.94-3-9.77-.86-12.63,1.49s-5.25,6.89-3.6,10.41A8.52,8.52,0,0,0,358.1,267.81Z" style="fill:#fff"></path><path d="M348.19,271.27c2.19-.35,3-4.52,1.43-6.21s-4.81-.44-5.28,1.25S346.22,271.59,348.19,271.27Z" style="fill:#fff"></path><path d="M339.15,290.35c-.66-2.11-4.9-2.32-6.35-.53s.24,4.82,2,5S339.74,292.26,339.15,290.35Z" style="fill:#fff"></path><path d="M367.06,301.36c-1.66,1-1,4.61.85,5.47s4-1.19,3.85-2.7S368.55,300.47,367.06,301.36Z" style="fill:#fff"></path><path d="M351.75,315.55c-1.88,1.13-1.09,5.26,1,6.24s4.59-1.36,4.4-3.08S353.46,314.54,351.75,315.55Z" style="fill:#fff"></path></g><path d="M237.64,126.23l1.12-1.17,4.15-4.32.46-.48,8.89-9.27.46-.48,1.19-1.23,1.12-1.17,6.57-6.84c.15-.16.3-.32.46-.47,2.56-2.67,5.24-5.46,8-8.33.28-.31.57-.6.86-.91l.09-.09.36-.38,8.86-9.2.45-.47,5.08-5.28c.27-.29.55-.57.82-.85l3-3.06.44-.46,8.85-9.17.43-.45,1.65-1.71c.26-.26.51-.53.76-.79L308.1,53l.42-.45,7-7.22.72-.74,1.12-1.14c.14-.15.28-.29.41-.44L326.62,34c.14-.13.27-.27.4-.41l2.74-2.77.69-.68c1.84-1.85,3-2.94,3.19-3.08a11.52,11.52,0,0,1,2.53-1.25h0l.46-.14a4.56,4.56,0,0,1,4.07.47,4.06,4.06,0,0,1,1.54,1.8c.06.14.13.29.19.45a9.28,9.28,0,0,1,.18,4.6c-.06.35-1,2.76-2.6,6.69l-.21.51-.09.23-.38.92c-1.19,2.92-2.67,6.48-4.36,10.54l-.21.52-2.94,7c-.14.32-.27.65-.41,1l-1,2.48-.51,1.21c-.07.18-.15.36-.23.55q-1.17,2.81-2.41,5.75l-.12.29c-.78,1.85-1.58,3.74-2.38,5.66l-.24.56L323.57,79c-.14.34-.29.69-.44,1l-3.59,8.53-.24.58c-1.43,3.37-2.87,6.78-4.3,10.17-.16.39-.33.77-.49,1.16-.06.13-.11.27-.18.41s-.15.38-.24.57c-1.67,4-3.34,7.9-5,11.75l-.24.59-2.75,6.48c-.2.47-.39.93-.59,1.38-.55,1.33-1.1,2.63-1.65,3.91l-.25.6-5,11.78-.26.61c-.46,1.07-.9,2.12-1.34,3.14l-.65,1.56-3,7.09c-.09.21-.17.41-.26.61l-3.93,9.26Z" style="fill:#EB4949"></path><path d="M237.64,126.23l1.12-1.17,4.15-4.32.46-.48,8.89-9.27.46-.48,1.19-1.23,1.12-1.17,6.57-6.84c.15-.16.3-.32.46-.47,2.56-2.67,5.24-5.46,8-8.33.28-.31.57-.6.86-.91l.09-.09.36-.38,8.86-9.2.45-.47,5.08-5.28c.27-.29.55-.57.82-.85l3-3.06.44-.46,8.85-9.17.43-.45,1.65-1.71c.26-.26.51-.53.76-.79L308.1,53l.42-.45,7-7.22.72-.74,1.12-1.14c.14-.15.28-.29.41-.44L326.62,34c.14-.13.27-.27.4-.41l2.74-2.77.69-.68c1.84-1.85,3-2.94,3.19-3.08a11.52,11.52,0,0,1,2.53-1.25h0l.46-.14a4.56,4.56,0,0,1,4.07.47,4.06,4.06,0,0,1,1.54,1.8c.06.14.13.29.19.45a9.28,9.28,0,0,1,.18,4.6c-.06.35-1,2.76-2.6,6.69l-.21.51-.09.23-.38.92c-1.19,2.92-2.67,6.48-4.36,10.54l-.21.52-2.94,7c-.14.32-.27.65-.41,1l-1,2.48-.51,1.21c-.07.18-.15.36-.23.55q-1.17,2.81-2.41,5.75l-.12.29c-.78,1.85-1.58,3.74-2.38,5.66l-.24.56L323.57,79c-.14.34-.29.69-.44,1l-3.59,8.53-.24.58c-1.43,3.37-2.87,6.78-4.3,10.17-.16.39-.33.77-.49,1.16-.06.13-.11.27-.18.41s-.15.38-.24.57c-1.67,4-3.34,7.9-5,11.75l-.24.59-2.75,6.48c-.2.47-.39.93-.59,1.38-.55,1.33-1.1,2.63-1.65,3.91l-.25.6-5,11.78-.26.61c-.46,1.07-.9,2.12-1.34,3.14l-.65,1.56-3,7.09c-.09.21-.17.41-.26.61l-3.93,9.26Z" style="opacity:0.2"></path><path d="M342.61,32.94c-.06.35-1,2.76-2.6,6.69l-.21.51-.09.23-.38.92c-1.19,2.92-2.67,6.48-4.36,10.54l-.21.52-2.94,7c-.14.32-.27.65-.41,1l-1,2.48-.51,1.21c-.07.18-.15.36-.23.55q-1.17,2.81-2.41,5.75l-.12.29c-.78,1.85-1.58,3.74-2.38,5.66l-.24.56L323.57,79c-.14.34-.29.69-.44,1l-3.59,8.53-.24.58c-1.43,3.37-2.87,6.78-4.3,10.17-.16.39-.33.77-.49,1.16-.06.13-.11.27-.18.41s-.15.38-.24.57c-1.67,4-3.34,7.9-5,11.75l-.24.59-2.75,6.48c-.2.47-.39.93-.59,1.38-.55,1.33-1.1,2.63-1.65,3.91l-.25.6-5,11.78-.26.61c-.46,1.07-.9,2.12-1.34,3.14l-.65,1.56-3,7.09c-.09.21-.17.41-.26.61-2.38,5.61-3.84,9-3.92,9.25h0l-51.53-34c.91.24,38.27,10.43,46.29,4.68s52-89.27,54-94.76,2.76-10.07-1.77-10.39h0l.46-.14a4.56,4.56,0,0,1,4.07.47,4,4,0,0,1,1.54,1.8c.06.14.13.29.19.45A9.28,9.28,0,0,1,342.61,32.94Z" style="opacity:0.1"></path><g style="opacity:0.2"><path d="M279.72,154q3.48-1,7-1.93h0l.72-.18c2-.53,3.95-1,5.95-1.5-.09.21-.17.41-.26.61q-2.85.69-5.68,1.44l-.71.19q-3.21.85-6.42,1.77Z"></path><path d="M268.43,146.54c2.63-.86,5.28-1.7,7.93-2.52l.65-.19c3.08-1,6.17-1.86,9.27-2.71l.68-.19c3.07-.84,6.15-1.64,9.25-2.38l.7-.17,1.74-.41-.26.61c-.49.1-1,.22-1.46.34l-.7.17c-3.09.75-6.18,1.55-9.25,2.4l-.67.18c-3.1.86-6.19,1.77-9.28,2.71l-.64.2-2.86.89c-1.51.48-3,1-4.51,1.46Z"></path><path d="M257.65,139.43c2.7-1,5.41-1.93,8.13-2.85l.56-.19q4.71-1.62,9.45-3.12c.19-.07.39-.13.58-.18,3.12-1,6.26-1.94,9.4-2.85l.61-.17q4.67-1.33,9.36-2.54l.64-.16c2.5-.63,5-1.23,7.51-1.78l-.25.6q-3.63.81-7.23,1.74c-.22,0-.43.1-.64.16-3.13.79-6.25,1.64-9.35,2.53l-.62.18q-4.67,1.33-9.29,2.81l-.1,0-.59.19q-4.74,1.51-9.43,3.14h0l-.56.19q-3.78,1.31-7.54,2.69Z"></path><path d="M247.19,132.53l7.59-2.83.25-.09.28-.1q4.79-1.77,9.6-3.46l.52-.18q4.77-1.68,9.57-3.25l.53-.18c3.17-1,6.35-2,9.55-3l.55-.17q4.72-1.42,9.5-2.69l.57-.15c3.14-.83,6.29-1.62,9.46-2.34l.61-.14c1.11-.26,2.23-.51,3.35-.75l-.24.59-3.08.69-.61.14q-4.74,1.09-9.45,2.36l-.58.15c-3.18.84-6.34,1.75-9.49,2.69l-.55.16c-1.89.57-3.76,1.14-5.63,1.73l-3.9,1.27c-.19,0-.36.12-.54.18q-4.8,1.57-9.56,3.29l-.53.18q-4.8,1.72-9.58,3.52l-.53.2c-2.32.86-4.63,1.75-6.94,2.63Z"></path><path d="M237.64,126.23l1.12-1.17,4.53-1.77.52-.19q4.84-1.87,9.72-3.68l.52-.2,4-1.47,5.73-2.09.52-.18q4.83-1.73,9.68-3.37l.52-.18q4.82-1.62,9.66-3.13l.52-.16q4.8-1.48,9.64-2.84l.53-.15q4.79-1.34,9.61-2.5A4.42,4.42,0,0,1,305,103c2.63-.65,5.29-1.25,7.95-1.81l1.41-.29c-.08.19-.15.38-.24.57-3,.64-6.06,1.32-9.07,2.07l-.56.13q-4.81,1.18-9.6,2.51l-.53.16c-3.22.89-6.43,1.85-9.63,2.84l-.52.16-1.71.53c-2.66.85-5.31,1.72-7.94,2.63l-.53.17q-4.85,1.66-9.66,3.43l-.52.19c-3.24,1.17-6.46,2.39-9.68,3.61l-.52.2q-4.86,1.85-9.71,3.72l-.51.19c-1.91.75-3.83,1.48-5.75,2.22Z"></path><path d="M253.91,109.28l1.12-1.17c2-.75,4-1.49,6-2.22l1.3-.48.51-.18q4.88-1.8,9.78-3.5c.17-.07.34-.12.52-.18,3.25-1.12,6.5-2.22,9.77-3.27l.52-.17c3.23-1,6.49-2,9.75-3l.52-.16q4.84-1.41,9.74-2.68l.52-.13q4.83-1.25,9.72-2.33l.53-.11,1.73-.38c1.21-.26,2.42-.5,3.64-.74l-.24.58c-1.7.34-3.39.69-5.08,1.07l-.54.11q-4.86,1.09-9.7,2.34l-.52.14q-4.89,1.26-9.73,2.68l-.52.15c-2.6.76-5.18,1.55-7.76,2.37l-2,.63-.52.17q-4.9,1.59-9.75,3.31l-.52.18q-4.91,1.74-9.77,3.56l-.51.19C259.55,107.12,256.73,108.19,253.91,109.28Z"></path><path d="M270.93,91.56s0,0,0-.06l.1,0,.41-.14q4.92-1.77,9.88-3.42l.51-.17q4.92-1.63,9.88-3.16l.51-.15q4.91-1.52,9.86-2.86l.53-.14q4.89-1.34,9.84-2.51a4.87,4.87,0,0,1,.52-.12q3-.7,5.92-1.33c1.29-.27,2.59-.54,3.89-.79l.53-.1,1.42-.27-.24.56-1.12.22-.53.1c-3.28.65-6.56,1.37-9.8,2.14l-.53.12q-4.94,1.18-9.83,2.51l-.53.15q-4.93,1.35-9.84,2.85l-.52.16-3.35,1q-3.27,1-6.52,2.13l-.51.17q-4.95,1.68-9.87,3.47l-.51.18-.95.36C270.35,92.16,270.64,91.87,270.93,91.56Z"></path><path d="M285.77,76.14c.27-.29.55-.57.82-.85,1.11-.37,2.22-.73,3.34-1.08l.49-.16q5-1.59,10-3l.51-.15q5-1.42,10-2.69l.52-.14c3.3-.83,6.63-1.61,9.95-2.32l.48-.1h.06c2.64-.56,5.29-1.08,7.94-1.54-.07.18-.15.36-.23.55q-3.83.69-7.64,1.51l-.53.11q-5,1.08-9.95,2.33l-.51.13q-5,1.28-10,2.7l-.52.15c-3,.88-6.08,1.81-9.1,2.76l-.88.29-.5.16C288.6,75.2,287.18,75.66,285.77,76.14Z"></path><path d="M300.91,60.44c.26-.26.51-.53.76-.79,2.45-.72,4.9-1.41,7.37-2.08l.51-.13q5-1.36,10.1-2.54l.52-.12c1.55-.36,3.11-.7,4.67-1q2.71-.57,5.43-1.08l.52-.1c1.39-.27,2.79-.51,4.18-.74l-.21.52c-1.3.23-2.59.46-3.89.71l-.53.1q-5.05,1-10.08,2.15a4.87,4.87,0,0,0-.52.12Q314.67,56.6,309.65,58l-.5.13C306.39,58.85,303.64,59.62,300.91,60.44Z"></path><path d="M315.52,45.34l.72-.74,1.31-.33a3.74,3.74,0,0,1,.48-.12q4.88-1.21,9.79-2.26l.49-.1.51-.11q5.12-1.07,10.25-1.9l.52-.08.42-.07-.21.51-.13,0a3.28,3.28,0,0,0-.52.08q-5.13.86-10.23,1.94l-.52.11q-5.14,1.1-10.26,2.37l-.49.12Z"></path><path d="M329.76,30.78l.69-.68.35-.08c2-.42,4-.83,6.07-1.2l.48-.09c1.63-.3,3.26-.59,4.89-.84.06.14.13.29.19.45-1.66.27-3.31.57-5,.88-.16,0-.32.05-.48.09C334.56,29.77,332.16,30.26,329.76,30.78Z"></path><path d="M242.91,120.74l.46-.48c.15.95.3,1.89.44,2.84,0,.25.07.49.1.73.36,2.39.68,4.79,1,7.19l-.59-.39q-.42-3.32-.9-6.61c0-.24-.07-.48-.11-.73C243.17,122.45,243,121.6,242.91,120.74Z"></path><path d="M252.26,111l.46-.48q.74,4.35,1.33,8.71c0,.23.07.46.09.69q.66,4.78,1.17,9.6c0,.22.05.45.07.67.3,2.76.56,5.52.8,8.29l-.59-.4c-.13-1.57-.28-3.15-.43-4.72-.1-1-.2-2-.31-3,0-.23,0-.45-.07-.68q-.51-4.8-1.16-9.59c0-.23-.06-.47-.09-.69C253.15,116.6,252.72,113.79,252.26,111Z"></path><path d="M261.6,101.27c.15-.16.3-.32.46-.47.27,1.47.51,3,.74,4.43,0,.21.07.43.1.65q.77,4.78,1.36,9.6c0,.21.06.42.08.63q.62,4.88,1.09,9.76l.06.61c.32,3.3.61,6.6.85,9.91,0,.19,0,.38.05.58h0c.22,2.86.4,5.73.57,8.6l-.64-.43c-.14-2.66-.31-5.32-.49-8,0-.2,0-.4-.05-.59-.23-3.31-.5-6.61-.82-9.92,0-.2,0-.41,0-.61,0,0,0-.07,0-.11-.31-3.21-.67-6.43-1.07-9.64,0-.21-.05-.42-.08-.64q-.6-4.8-1.35-9.59c0-.22-.06-.44-.1-.66Q262,103.34,261.6,101.27Z"></path><path d="M270.92,91.5l.1,0,.36-.38c0,.08,0,.16.05.24s.07.4.1.6c.58,3.2,1.1,6.4,1.57,9.62l.09.59q.72,4.89,1.27,9.79c0,.19.05.39.07.58.38,3.3.71,6.62,1,9.93l.06.57q.44,5,.78,10.08c0,.18,0,.36,0,.55.23,3.39.42,6.79.6,10.19,0,.09,0,.19,0,.29a2.17,2.17,0,0,1,0,.26q.21,4,.39,8.1l-.72-.48q-.15-3.72-.31-7.42l0-.56c-.15-3.4-.33-6.79-.54-10.19l0-.56c-.21-3.37-.45-6.73-.74-10.08,0-.19,0-.38-.05-.57-.11-1.36-.24-2.72-.38-4.09q-.28-2.93-.62-5.85l-.06-.57c-.38-3.27-.8-6.54-1.27-9.79,0-.19-.05-.39-.09-.59q-.69-4.82-1.56-9.62l-.09-.55S270.92,91.52,270.92,91.5Z"></path><path d="M280.24,81.89l.45-.47c.41,2.11.79,4.21,1.13,6.32,0,.19.07.38.09.55q.82,4.9,1.48,9.82a5.52,5.52,0,0,1,.07.55c.45,3.33.84,6.65,1.18,10a4.87,4.87,0,0,1,.06.55c.35,3.36.66,6.74.93,10.11,0,.18,0,.37,0,.55q.4,5.1.71,10.22c0,.18,0,.36,0,.55.11,2,.23,4.06.33,6.09l.21,4.22c0,.19,0,.37,0,.56.17,3.46.32,6.91.45,10.38,0,.18,0,.36,0,.55q.13,3.41.22,6.81l-.7-.46c-.08-2.06-.15-4.11-.23-6.16,0-.19,0-.37,0-.55h0c-.12-3.46-.26-6.92-.4-10.38l0-.55c-.13-3.45-.29-6.88-.48-10.32,0-.19,0-.37,0-.56q-.27-5.12-.65-10.23c0-.18,0-.36,0-.54q-.31-4.17-.72-8.34l-.18-1.78-.06-.55c-.35-3.33-.73-6.65-1.18-10a5.52,5.52,0,0,0-.07-.55c-.44-3.28-.92-6.55-1.47-9.82,0-.18,0-.36-.09-.55Q280.82,84.9,280.24,81.89Z"></path><path d="M289.54,72.23l.44-.46c0,.18.07.36.11.54q.18.87.33,1.74a5.17,5.17,0,0,1,.11.54c.63,3.27,1.18,6.55,1.68,9.84a5.34,5.34,0,0,1,.09.53c.51,3.33,1,6.66,1.36,10,0,.19,0,.37.07.55.42,3.38.77,6.76,1.08,10.14a4.93,4.93,0,0,1,.05.54c.33,3.42.6,6.85.84,10.27,0,.18,0,.37,0,.55.25,3.45.45,6.9.64,10.36l0,.56c0,.45,0,.91.07,1.37.15,3,.3,6,.43,9.08,0,.18,0,.36,0,.54l.12,2.8-.65,1.56c-.06-1.4-.11-2.79-.17-4.19,0-.18,0-.36,0-.54-.13-3.49-.27-7-.44-10.46,0-.18,0-.37,0-.56q-.24-5.18-.58-10.37a5.07,5.07,0,0,0,0-.55c-.22-3.42-.48-6.84-.8-10.26,0-.19,0-.37-.05-.55-.06-.7-.13-1.38-.19-2.08q-.4-4-.88-8.06c0-.18,0-.36-.07-.54-.4-3.34-.86-6.67-1.36-10,0-.18,0-.36-.08-.54-.51-3.28-1.06-6.56-1.67-9.83,0-.18-.07-.36-.1-.54C289.8,73.55,289.68,72.89,289.54,72.23Z"></path><path d="M298.83,62.6l.43-.45c.2.92.39,1.83.57,2.75.39,2,.76,4,1.1,6,0,.18.07.35.1.53.58,3.34,1.1,6.68,1.57,10,0,.18,0,.35.07.53q.7,5.08,1.25,10.19a5,5,0,0,1,.06.54c.38,3.43.7,6.87,1,10.32,0,.18,0,.36,0,.54q.42,5.2.75,10.43l0,.53q.18,2.89.33,5.79c-.2.47-.39.93-.59,1.38q-.15-3.51-.35-7l0-.53q-.29-5.22-.7-10.44c0-.18,0-.36,0-.53q-.27-3.42-.6-6.84l-.36-3.48-.06-.55q-.56-5.1-1.26-10.17c0-.18,0-.36-.07-.54q-.69-5-1.56-10a5.34,5.34,0,0,0-.09-.53C299.93,68.2,299.41,65.4,298.83,62.6Z"></path><path d="M308.1,53l.42-.45c.36,1.62.7,3.25,1,4.88v.05l.09.48c.66,3.34,1.25,6.7,1.78,10.06a5.24,5.24,0,0,1,.08.53c.55,3.41,1,6.82,1.45,10.24,0,.18.05.35.07.53q.64,5.17,1.14,10.38c0,.17,0,.35.05.53.3,3,.55,6.06.78,9.1-.16.39-.33.77-.49,1.16-.24-3.38-.5-6.76-.83-10.15a4.91,4.91,0,0,0,0-.53l-.09-.91c-.31-3.16-.65-6.31-1.05-9.46l-.06-.53q-.65-5.13-1.44-10.23l-.09-.52q-.8-5-1.76-10.07c0-.17-.08-.35-.11-.53C308.74,56.05,308.43,54.53,308.1,53Z"></path><path d="M317.36,43.46c.14-.15.28-.29.41-.44.09.38.18.76.26,1.13,0,.17.08.35.11.52q.62,2.7,1.14,5.42c.31,1.56.61,3.13.89,4.69a4.89,4.89,0,0,1,.09.53q.93,5.13,1.66,10.29c0,.17.05.35.07.52.5,3.48.93,7,1.31,10.46,0,.17,0,.34.06.51.08.64.14,1.29.21,1.94-.14.34-.29.69-.44,1-.09-1-.19-1.91-.3-2.87,0-.17,0-.34-.06-.51q-.57-5.24-1.31-10.45c0-.17,0-.34-.08-.52-.48-3.43-1-6.86-1.64-10.28a5.34,5.34,0,0,0-.09-.53q-.9-5.07-2-10.11c0-.17-.07-.35-.1-.52S317.42,43.73,317.36,43.46Z"></path><path d="M326.62,34c.14-.13.27-.27.4-.41.65,2.69,1.25,5.41,1.8,8.13,0,.16.07.34.1.51s.07.32.1.49c.65,3.29,1.24,6.58,1.77,9.89,0,.16.06.32.08.49.34,2.11.65,4.22.95,6.33-.14.32-.27.65-.41,1-.33-2.41-.68-4.81-1.07-7.21,0-.16,0-.32-.07-.49-.56-3.46-1.18-6.93-1.87-10.37,0-.17-.06-.34-.09-.51Q327.52,37.86,326.62,34Z"></path><path d="M336.17,25.77h0l.46-.14c.25,1,.49,2.07.72,3.11a3.52,3.52,0,0,1,.11.49q.69,3,1.29,6.05c.29,1.47.57,2.95.84,4.43,0,.16.05.31.08.47a1.77,1.77,0,0,1,0,.2l-.38.92c-.05-.34-.12-.69-.18-1,0-.16,0-.31-.08-.47q-1-5.25-2.09-10.47c0-.16-.07-.33-.11-.49C336.64,27.8,336.41,26.78,336.17,25.77Z"></path></g><path d="M253.91,118.19c2,5.1,28-3.5,35.08-10.63s31.45-49.42,24.18-51.43c-2.24-.61-9.56,3.66-27.7,21.87C267.64,95.91,251.81,113,253.91,118.19Z" style="fill:#fff;opacity:0.2"></path><g style="opacity:0.30000000000000004"><path d="M274,113.14c7.68-.63,15.62-14.81,10.09-19-4.52-3.44-11.22-1-14.5,1.71s-6,7.91-4.14,12C267.06,111.2,271.18,113.37,274,113.14Z" style="fill:#fff"></path><path d="M261.36,118.38c3.06-.49,4.19-6.31,2-8.68s-6.72-.62-7.38,1.74S258.61,118.82,261.36,118.38Z" style="fill:#fff"></path></g><path d="M294.28,162.7a44.14,44.14,0,0,1-4.47,21.65h-.07v7.87a6.07,6.07,0,0,1-5,6.06,5.94,5.94,0,0,1-6.83-5.87v-2.55a5.51,5.51,0,0,0-5.51-5.51h-8.21a5.51,5.51,0,0,0-5.51,5.51v5.93a6.07,6.07,0,0,1-5,6.06,5.92,5.92,0,0,1-6.87-5.86V192.3a5.94,5.94,0,0,0-5.94-5.94h0a5.94,5.94,0,0,0-5.94,5.94V218a6.07,6.07,0,0,1-4.93,6.05,5.93,5.93,0,0,1-6.93-5.86V189.86a5.51,5.51,0,0,0-5.51-5.51h-7.33a44.33,44.33,0,1,1,84.09-21.65Z" style="fill:#EB4949"></path><g style="opacity:0.1"><path d="M244.55,187.68a5.92,5.92,0,0,0-7.92.42,6,6,0,0,0-1.74,4.2V218a6.07,6.07,0,0,1-4.93,6.05,6,6,0,0,1-5.2-1.66,4.69,4.69,0,0,1-.54-.64,5.94,5.94,0,0,0,4.71,1.23,6.07,6.07,0,0,0,4.93-6v-25.7a5.89,5.89,0,0,1,1.74-4.2,6,6,0,0,1,4.2-1.74A5.89,5.89,0,0,1,244.55,187.68Z"></path><path d="M275.76,185.53a5.48,5.48,0,0,0-3.4-1.18h-8.21a5.51,5.51,0,0,0-5.51,5.51v5.93a6.07,6.07,0,0,1-5,6.06,6,6,0,0,1-5.14-1.66,4.69,4.69,0,0,1-.54-.64,6,6,0,0,0,4.65,1.23,6.07,6.07,0,0,0,5-6.06v-5.93a5.52,5.52,0,0,1,5.52-5.51h8.21A5.46,5.46,0,0,1,275.76,185.53Z"></path><path d="M289.81,184.35h-.07v7.87a6.07,6.07,0,0,1-5,6.06,5.89,5.89,0,0,1-5.63-2.31,5.9,5.9,0,0,0,4.6,1.24,6.07,6.07,0,0,0,5-6.06v-7.87h.07a44.21,44.21,0,0,0-7.13-49.39,44.19,44.19,0,0,1,8.16,50.46Z"></path></g><path d="M295,169.51h-89.9a7.37,7.37,0,0,0-7.38,7.38h0a7.38,7.38,0,0,0,7.38,7.38H295a7.38,7.38,0,0,0,7.38-7.38h0A7.37,7.37,0,0,0,295,169.51Z" style="fill:#EB4949"></path><ellipse cx="232.82" cy="144.46" rx="22.54" ry="15.99" transform="translate(-33.18 210.15) rotate(-45.69)" style="fill:#fff;opacity:0.2"></ellipse><g style="opacity:0.30000000000000004"><path d="M232.63,146.54c7.68-.62,15.6-14.79,10.08-19-4.52-3.43-11.2-1-14.48,1.71s-6,7.9-4.13,11.94C225.7,144.6,229.82,146.77,232.63,146.54Z" style="fill:#fff"></path><path d="M221.26,150.51c2.51-.4,3.44-5.18,1.64-7.12s-5.51-.51-6.05,1.43S219,150.87,221.26,150.51Z" style="fill:#fff"></path><path d="M207.61,172.7c-.75-2.43-5.62-2.67-7.28-.62s.27,5.54,2.26,5.79S208.28,174.89,207.61,172.7Z" style="fill:#fff"></path><path d="M249,194.19c-1.9,1.13-1.11,5.29,1,6.28s4.62-1.37,4.43-3.11S250.72,193.17,249,194.19Z" style="fill:#fff"></path><path d="M225.54,214.62c-2.17,1.29-1.26,6,1.11,7.16s5.27-1.56,5-3.54S227.49,213.45,225.54,214.62Z" style="fill:#fff"></path></g><g style="opacity:0.1"><path d="M210.66,169.51c21.73-.67,43.6-.67,65.33,0-21.73.67-43.6.67-65.33,0Z"></path><path d="M279.72,169.51a23.55,23.55,0,0,1,9.82,0,23.72,23.72,0,0,1-9.82,0Z"></path></g></g><g id="freepik--Table--inject-11"><path d="M51.68,474c127.06-.61,269.58-.61,396.64,0-127.06.62-269.58.62-396.64,0Z" style="fill:#263238"></path></g></svg>
